<svg width="20" height="25" viewBox="0 0 20 25" fill="none" xmlns="http://www.w3.org/2000/svg">
<path d="M10.0057 4.25C12.6307 4.25 15.1307 5.25 17.0057 7.125C20.8807 11 20.8807 17.375 17.0057 21.25C14.7557 23.625 11.6307 24.5 8.63068 24.125L9.25568 21.625C11.3807 21.875 13.6307 21.125 15.2557 19.5C18.1307 16.625 18.1307 11.875 15.2557 8.875C13.8807 7.5 11.8807 6.75 10.0057 6.75V12.5L3.75568 6.25L10.0057 0V4.25ZM2.88068 21.25C-0.369318 18 -0.869318 13 1.38068 9.125L3.25568 11C1.88068 13.75 2.38068 17.25 4.75568 19.5C5.38068 20.125 6.13068 20.625 7.00568 21L6.25568 23.5C5.00568 23 3.88068 22.25 2.88068 21.25Z" fill="#53737E"/>
</svg>
